<svg width="21" height="20" viewBox="0 0 21 20" fill="none" xmlns="http://www.w3.org/2000/svg">
<path fill-rule="evenodd" clip-rule="evenodd" d="M10.4969 1.06571C12.1645 0.0114027 14.3797 -0.279865 16.2935 0.333438C20.4564 1.67593 21.7486 6.21417 20.5928 9.82527C18.8093 15.4968 11.1922 19.7273 10.8692 19.9048C10.7543 19.9684 10.6271 20.0001 10.4999 20.0001C10.3728 20.0001 10.2466 19.9694 10.1318 19.9068C9.81075 19.7314 2.24907 15.5634 0.406089 9.8263C0.405063 9.8263 0.405063 9.82527 0.405063 9.82527C-0.751802 6.21314 0.536339 1.67388 4.69511 0.333438C6.64783 -0.298325 8.77593 -0.0203906 10.4969 1.06571ZM5.16688 1.79798C1.80192 2.88305 0.956831 6.50236 1.87063 9.35658C3.30851 13.8302 8.98925 17.4475 10.4989 18.3428C12.0137 17.4382 17.7355 13.781 19.1272 9.36068C20.041 6.50338 19.1928 2.88408 15.8228 1.79798C14.19 1.2739 12.2855 1.59286 10.9707 2.61025C10.6958 2.82152 10.3143 2.82562 10.0374 2.6164C8.64465 1.56927 6.82525 1.26262 5.16688 1.79798ZM14.8382 3.8347C16.2361 4.28698 17.2155 5.52487 17.3355 6.98839C17.3693 7.41196 17.0545 7.78322 16.6309 7.81706C16.6094 7.81911 16.5889 7.82014 16.5673 7.82014C16.1704 7.82014 15.834 7.51554 15.8012 7.11351C15.7335 6.27047 15.1695 5.55871 14.3664 5.29924C13.9613 5.16797 13.7398 4.73414 13.87 4.33108C14.0023 3.927 14.4321 3.70752 14.8382 3.8347Z" fill="black"/>
</svg>
