<svg width="30" height="30" viewBox="0 0 30 30" fill="none" xmlns="http://www.w3.org/2000/svg">
<path d="M9.39487 1.50024C10.1362 1.52616 10.852 1.65738 11.5484 1.8945L11.5772 1.92331L11.9094 2.03564C12.1913 2.13099 12.4023 2.22014 12.5833 2.32494L12.6383 2.35678L12.6958 2.38385L13.1955 2.61916C13.2027 2.62392 13.2114 2.62986 13.2219 2.63714C13.2572 2.66174 13.2985 2.69222 13.3497 2.73106C13.3623 2.74058 13.3835 2.75675 13.4073 2.77489C13.4448 2.80355 13.4888 2.83713 13.5154 2.85716C13.5686 2.89721 13.6516 2.95888 13.7394 3.0153L13.7489 3.0214L13.7585 3.02735C13.8018 3.05426 13.8383 3.07681 13.8693 3.09596C13.9865 3.16845 14.0248 3.19215 14.0578 3.21881L14.9983 3.97781L15.94 3.22031C17.3491 2.0869 19.0396 1.48735 20.7636 1.5002V1.50024H20.7748C21.5737 1.50024 22.3471 1.61911 23.0652 1.87275L23.0721 1.8752L23.0791 1.87758C27.5857 3.41986 29.5117 8.77971 27.9985 13.8873C27.1213 16.5287 25.6941 18.9309 23.8369 20.8884C21.1447 23.6316 18.2037 26.0799 15.0468 28.2074C11.8713 26.0912 8.9059 23.638 6.1816 20.8734C4.33446 18.9126 2.90546 16.5228 2.01407 13.8806C0.478781 8.78555 2.39495 3.41945 6.97 1.84344L6.98166 1.83942L6.99325 1.83522C7.29826 1.72451 7.61109 1.6443 7.92399 1.59523H7.99494H8.10946L8.22265 1.57785C8.56542 1.5252 8.90768 1.50024 9.25493 1.50024H9.39487Z" stroke="#434E58" stroke-width="3"/>
</svg>
