<svg width="30" height="30" viewBox="0 0 30 30" fill="none" xmlns="http://www.w3.org/2000/svg">
<path d="M25.1152 20.5803C24.2723 15.2854 19.4294 10.9805 14.315 10.9805C8.75771 10.9805 3.8719 15.7054 3.40047 21.5253C3.21475 23.7753 3.90047 25.9052 5.31479 27.5102C6.71481 29.1152 8.68628 30.0002 10.8292 30.0002H17.515C19.9294 30.0002 22.0437 29.0102 23.4866 27.2252C24.9295 25.4402 25.5009 23.0703 25.1152 20.5803Z" fill="#434E58"/>
<path d="M12.5425 8.78987C14.8543 8.78987 16.7283 6.82218 16.7283 4.39493C16.7283 1.96769 14.8543 0 12.5425 0C10.2308 0 8.35675 1.96769 8.35675 4.39493C8.35675 6.82218 10.2308 8.78987 12.5425 8.78987Z" fill="#434E58"/>
<path d="M22.0576 10.5425C23.9827 10.5425 25.5433 8.90393 25.5433 6.8826C25.5433 4.86126 23.9827 3.22266 22.0576 3.22266C20.1324 3.22266 18.5718 4.86126 18.5718 6.8826C18.5718 8.90393 20.1324 10.5425 22.0576 10.5425Z" fill="#434E58"/>
<path d="M27.2142 16.3969C28.7528 16.3969 30 15.0872 30 13.4718C30 11.8564 28.7528 10.5469 27.2142 10.5469C25.6758 10.5469 24.4285 11.8564 24.4285 13.4718C24.4285 15.0872 25.6758 16.3969 27.2142 16.3969Z" fill="#434E58"/>
<path d="M3.48578 13.4723C5.41092 13.4723 6.97156 11.8336 6.97156 9.81229C6.97156 7.79096 5.41092 6.15234 3.48578 6.15234C1.56064 6.15234 0 7.79096 0 9.81229C0 11.8336 1.56064 13.4723 3.48578 13.4723Z" fill="#434E58"/>
</svg>
