<svg width="30" height="35" viewBox="0 0 30 35" fill="none" xmlns="http://www.w3.org/2000/svg">
<path fill-rule="evenodd" clip-rule="evenodd" d="M14.3824 34.8227C14.3829 34.8229 14.3832 34.8231 15 34.0282L14.3824 34.8227ZM15.6176 34.8227L15.6214 34.8202L15.6312 34.814L15.6652 34.7918C15.6945 34.7728 15.7366 34.7452 15.7906 34.7092C15.8986 34.6371 16.0545 34.5317 16.2515 34.3943C16.6454 34.1194 17.204 33.7165 17.8726 33.1978C19.2083 32.1615 20.9901 30.6573 22.7748 28.7839C26.3185 25.0641 30 19.7553 30 13.6861C30 10.0582 28.4211 6.57766 25.6089 4.01057C22.7962 1.44332 18.9802 0 15 0C11.0197 0 7.20375 1.44332 4.39114 4.01057C1.57886 6.57766 0 10.0582 0 13.6861C0 19.7553 3.68154 25.0641 7.22518 28.7839C9.00986 30.6573 10.7917 32.1615 12.1274 33.1978C12.796 33.7165 13.3546 34.1194 13.7485 34.3943C13.9455 34.5317 14.1014 34.6371 14.2094 34.7092C14.2634 34.7452 14.3055 34.7728 14.3348 34.7918L14.3688 34.814L14.3786 34.8202L14.3824 34.8227C14.7524 35.0591 15.2476 35.0591 15.6176 34.8227ZM15 34.0282L15.6176 34.8227C15.6171 34.8229 15.6168 34.8231 15 34.0282ZM20.3571 13.6113C20.3571 16.296 17.9586 18.4725 15 18.4725C12.0414 18.4725 9.64286 16.296 9.64286 13.6113C9.64286 10.9266 12.0414 8.75012 15 8.75012C17.9586 8.75012 20.3571 10.9266 20.3571 13.6113Z" fill="#78828A"/>
</svg>
