<svg width="30" height="30" viewBox="0 0 30 30" fill="none" xmlns="http://www.w3.org/2000/svg">
<path d="M13.426 22.4224L14.3302 20.4057C13.437 19.471 12.5913 18.4877 11.7966 17.4598C12.4602 16.5205 13.0785 15.5565 13.6516 14.5679C15.2419 11.8275 16.4734 8.87481 17.313 5.78946H20.559V3.6842H11.5331V0H9.52735V3.6842H0V5.78946H3.74638C4.72616 9.39046 6.23726 12.8082 8.22474 15.9183C8.65165 15.3653 9.08383 14.7715 9.51381 14.14C7.93075 11.5458 6.69377 8.73613 5.83738 5.78946H15.2229C13.3596 12.2059 9.92355 16.9215 7.2851 19.8104C4.21422 23.1727 1.52156 24.867 1.49473 24.8837L1.59633 25.0638L2.00576 25.7894L2.51597 26.6956C2.63337 26.6228 5.42896 24.8713 8.68299 21.3219C9.32567 20.621 9.94077 19.8988 10.5283 19.1554C11.4355 20.3002 12.403 21.3908 13.426 22.4224Z" fill="#434E58"/>
<path d="M19.9149 12.105L19.5562 12.9284L12.1211 29.9997H14.3265L16.6187 24.7365H25.5024L27.7946 29.9997H30L22.2062 12.105H19.9149ZM19.5562 22.6313H17.5357L19.5562 17.992L21.0605 14.5381L24.5854 22.6313H19.5562Z" fill="#434E58"/>
</svg>
