<svg width="30" height="30" viewBox="0 0 30 30" fill="none" xmlns="http://www.w3.org/2000/svg">
<path d="M8.90625 8.27588H20.1563V9.8276H8.90625V8.27588Z" fill="#434E58"/>
<path d="M16.4034 3.58897C16.3965 3.04616 16.1962 2.52819 15.8458 2.14705C15.4955 1.76592 15.0233 1.55225 14.5313 1.55225C14.0394 1.55225 13.5672 1.76592 13.2168 2.14705C12.8665 2.52819 12.6662 3.04616 12.6592 3.58897C12.0268 3.93526 11.4832 4.45106 11.0781 5.08916C10.673 5.72726 10.4195 6.46728 10.3407 7.24147H18.7219C18.6431 6.46728 18.3896 5.72726 17.9845 5.08916C17.5795 4.45106 17.0359 3.93526 16.4034 3.58897ZM13.6753 3.19928C13.7491 3.01685 13.8692 2.86191 14.0212 2.75318C14.1731 2.64446 14.3503 2.5866 14.5313 2.5866C14.7124 2.5866 14.8896 2.64446 15.0415 2.75318C15.1934 2.86191 15.3135 3.01685 15.3874 3.19928C15.1055 3.13681 14.8188 3.10475 14.5313 3.10354C14.2439 3.10648 13.9574 3.13853 13.6753 3.19928ZM14.2829 5.18803C13.9453 5.22699 13.6194 5.34666 13.328 5.53872C13.0366 5.73077 12.7866 5.99059 12.5954 6.30009C12.5524 6.36869 12.4949 6.42475 12.428 6.46349C12.3611 6.50222 12.2866 6.52248 12.211 6.52251C12.1158 6.52454 12.0224 6.4938 11.9438 6.43458C11.8418 6.35656 11.7719 6.23732 11.749 6.10272C11.7262 5.96812 11.7524 5.82903 11.8219 5.71561C12.0913 5.28206 12.4428 4.91833 12.8522 4.64964C13.2616 4.38096 13.7191 4.21374 14.1929 4.15959C14.316 4.14756 14.4384 4.18968 14.5334 4.27677C14.6284 4.36387 14.6884 4.48888 14.7003 4.62457C14.7122 4.76025 14.6749 4.89562 14.5968 5.00116C14.5186 5.1067 14.4058 5.17387 14.2829 5.18803Z" fill="#434E58"/>
<path d="M5.625 10.8621V1.55172C5.62459 1.14032 5.4763 0.745895 5.21267 0.454988C4.94903 0.164082 4.59159 0.000451799 4.21875 0H0.46875C0.34443 0 0.225201 0.0544949 0.137294 0.151496C0.049386 0.248498 0 0.38006 0 0.517241L0 2.58621C0 2.72339 0.049386 2.85495 0.137294 2.95195C0.225201 3.04895 0.34443 3.10345 0.46875 3.10345H4.6875V16.0345C4.68786 16.1715 4.73736 16.3029 4.82519 16.3998C4.91302 16.4967 5.03204 16.5513 5.15625 16.5517C6.45 16.5517 7.18125 17.2138 8.02031 17.9845C8.87813 18.7655 9.84844 19.6552 11.4844 19.6552C13.1344 19.6552 13.9875 18.7552 14.7375 17.9586C15.45 17.2034 16.0641 16.5517 17.3391 16.5517C18.6188 16.5517 19.2328 17.2034 19.9453 17.9586C20.6953 18.7552 21.5484 19.6552 23.2031 19.6552C24.8344 19.6552 25.8094 18.7655 26.6672 17.9845C27.5063 17.2138 28.2328 16.5517 29.5312 16.5517C29.6555 16.5513 29.7745 16.4967 29.8623 16.3998C29.9501 16.3029 29.9996 16.1715 30 16.0345V10.8621H5.625Z" fill="#434E58"/>
<path d="M23.2031 20.6899C21.1688 20.6899 20.0859 19.5416 19.2984 18.7037C18.6375 18.0054 18.2391 17.5864 17.3391 17.5864C16.4438 17.5864 16.0453 18.0054 15.3844 18.7037C14.5969 19.5416 13.5141 20.6899 11.4844 20.6899C9.51094 20.6899 8.30625 19.5882 7.425 18.7813C6.77813 18.1916 6.30469 17.7623 5.625 17.6278V27.414C5.62536 27.5511 5.67486 27.6824 5.76269 27.7793C5.85052 27.8762 5.96954 27.9309 6.09375 27.9313H8.00625C7.97962 27.7604 7.96707 27.5873 7.96875 27.414C7.96875 26.4537 8.31445 25.5328 8.92981 24.8538C9.54516 24.1748 10.3798 23.7933 11.25 23.7933C12.1202 23.7933 12.9548 24.1748 13.5702 24.8538C14.1855 25.5328 14.5313 26.4537 14.5313 27.414C14.5329 27.5873 14.5204 27.7604 14.4938 27.9313H20.1938C20.1671 27.7604 20.1546 27.5873 20.1563 27.414C20.1563 26.4537 20.502 25.5328 21.1173 24.8538C21.7327 24.1748 22.5673 23.7933 23.4375 23.7933C24.3077 23.7933 25.1423 24.1748 25.7577 24.8538C26.3731 25.5328 26.7188 26.4537 26.7188 27.414C26.7204 27.5873 26.7079 27.7604 26.6812 27.9313H28.5938C28.718 27.9309 28.837 27.8762 28.9248 27.7793C29.0126 27.6824 29.0621 27.5511 29.0625 27.414V17.6278C28.3781 17.7623 27.9094 18.1864 27.2625 18.7813C26.3813 19.5882 25.1719 20.6899 23.2031 20.6899Z" fill="#434E58"/>
<path d="M11.25 30.0001C12.5444 30.0001 13.5938 28.8422 13.5938 27.4138C13.5938 25.9855 12.5444 24.8276 11.25 24.8276C9.95558 24.8276 8.90625 25.9855 8.90625 27.4138C8.90625 28.8422 9.95558 30.0001 11.25 30.0001Z" fill="#434E58"/>
<path d="M23.4375 30.0001C24.7319 30.0001 25.7812 28.8422 25.7812 27.4138C25.7812 25.9855 24.7319 24.8276 23.4375 24.8276C22.1431 24.8276 21.0938 25.9855 21.0938 27.4138C21.0938 28.8422 22.1431 30.0001 23.4375 30.0001Z" fill="#434E58"/>
<path d="M27.6563 1.03433C27.6559 0.897272 27.6064 0.765939 27.5186 0.669023C27.4307 0.572108 27.3117 0.517486 27.1875 0.51709H22.5C22.3758 0.517486 22.2568 0.572108 22.1689 0.669023C22.0811 0.765939 22.0316 0.897272 22.0312 1.03433V2.58606H27.6563V1.03433Z" fill="#434E58"/>
<path d="M24.8438 7.24129C25.5895 7.24064 26.3045 6.91346 26.8318 6.33159C27.3591 5.74972 27.6557 4.96073 27.6563 4.13785V3.62061H22.0312V4.13785C22.0318 4.96073 22.3284 5.74972 22.8557 6.33159C23.383 6.91346 24.098 7.24064 24.8438 7.24129Z" fill="#434E58"/>
<path d="M24.8438 8.27588C24.3615 8.27612 23.8838 8.17246 23.4375 7.9707V8.19312C23.4379 8.54928 23.3392 8.89701 23.1548 9.18931C22.9704 9.48161 22.7091 9.70441 22.4062 9.8276H27.2813C26.9784 9.70441 26.7171 9.48161 26.5327 9.18931C26.3483 8.89701 26.2496 8.54928 26.25 8.19312V7.9707C25.8037 8.17246 25.326 8.27612 24.8438 8.27588Z" fill="#434E58"/>
</svg>
