<svg width="31" height="30" viewBox="0 0 31 30" fill="none" xmlns="http://www.w3.org/2000/svg">
<path fill-rule="evenodd" clip-rule="evenodd" d="M15.4978 1.57344C17.9599 0.0168352 21.2306 -0.413199 24.0561 0.492296C30.2023 2.47439 32.1102 9.17475 30.4037 14.5063C27.7705 22.8798 16.5245 29.1259 16.0475 29.3879C15.8779 29.4818 15.6901 29.5287 15.5024 29.5287C15.3146 29.5287 15.1284 29.4833 14.9588 29.3909C14.4848 29.132 3.32059 22.9783 0.59956 14.5078C0.598046 14.5078 0.598046 14.5063 0.598046 14.5063C-1.10998 9.17324 0.791864 2.47136 6.93197 0.492296C9.81502 -0.440455 12.957 -0.0301052 15.4978 1.57344ZM7.6285 2.65458C2.66039 4.25661 1.41269 9.60024 2.76185 13.8143C4.88476 20.4192 13.2719 25.7598 15.5009 27.0818C17.7373 25.7462 26.1851 20.3466 28.2399 13.8203C29.589 9.60176 28.3368 4.25813 23.3611 2.65458C20.9505 1.88082 18.1386 2.35174 16.1974 3.85383C15.7916 4.16576 15.2283 4.17182 14.8195 3.86292C12.7632 2.31691 10.077 1.86417 7.6285 2.65458ZM21.9075 5.66164C23.9713 6.32941 25.4174 8.15705 25.5946 10.3178C25.6445 10.9432 25.1797 11.4913 24.5543 11.5413C24.5225 11.5443 24.4922 11.5458 24.4604 11.5458C23.8744 11.5458 23.3778 11.0961 23.3293 10.5026C23.2294 9.25788 22.3966 8.20702 21.2109 7.82393C20.6128 7.63011 20.2857 6.9896 20.4781 6.39452C20.6734 5.79792 21.3078 5.47388 21.9075 5.66164Z" fill="white"/>
</svg>
