<svg width="30" height="30" viewBox="0 0 30 30" fill="none" xmlns="http://www.w3.org/2000/svg">
<path d="M30 7.5H0V30H30V7.5ZM15 25C10.857 25 7.5 22.2025 7.5 18.75C7.5 15.2975 10.857 12.5 15 12.5C19.143 12.5 22.5 15.2975 22.5 18.75C22.5 22.2025 19.143 25 15 25Z" fill="#434E58"/>
<path d="M15 23.75C18.3135 23.75 21 21.5113 21 18.75H9C9 21.5113 11.6865 23.75 15 23.75Z" fill="#434E58"/>
<path d="M30 0H0V6.25H30V0ZM3 4.375C3 4.72 2.664 5 2.25 5C1.836 5 1.5 4.72 1.5 4.375V1.875C1.5 1.53 1.836 1.25 2.25 1.25C2.664 1.25 3 1.53 3 1.875V4.375ZM20.25 5C19.0065 5 18 4.16125 18 3.125C18 2.08875 19.0065 1.25 20.25 1.25C21.4935 1.25 22.5 2.08875 22.5 3.125C22.5 4.16125 21.4935 5 20.25 5ZM26.25 5C25.0065 5 24 4.16125 24 3.125C24 2.08875 25.0065 1.25 26.25 1.25C27.4935 1.25 28.5 2.08875 28.5 3.125C28.5 4.16125 27.4935 5 26.25 5Z" fill="#434E58"/>
</svg>
