<svg width="30" height="30" viewBox="0 0 30 30" fill="none" xmlns="http://www.w3.org/2000/svg">
<path d="M28.4635 10.0494L20.2713 8.80078L16.6103 1.04355C16.2812 0.350391 15.6392 0 14.9973 0C14.3592 0 13.7217 0.345703 13.3915 1.04355L9.72943 8.8002L1.53661 10.0477C0.0674126 10.2703 -0.521387 12.1623 0.543713 13.2463L6.47032 19.2814L5.06773 27.8057C4.86848 29.0232 5.79701 30 6.83692 30C7.11285 30 7.39662 29.9314 7.66919 29.7803L14.9984 25.7561L22.327 29.7814C22.5991 29.9309 22.8823 29.9988 23.1571 29.9988C24.1981 29.9988 25.1283 29.0256 24.9291 27.8074L23.5282 19.2826L29.4559 13.2486C30.5215 12.1646 29.9327 10.2721 28.4635 10.0494ZM21.6498 17.2682L20.6356 18.3006L20.8752 19.7584L21.9677 26.4059L16.2516 23.2658L14.999 22.5779L15.0006 3.99258L17.8568 10.0447L18.4825 11.3707L19.8823 11.584L26.2757 12.5584L21.6498 17.2682Z" fill="#FFC107"/>
</svg>
