<svg width="22" height="22" viewBox="0 0 22 22" fill="none" xmlns="http://www.w3.org/2000/svg">
<path d="M9.35387 1.43622L10.4439 0.346167C10.9055 -0.115389 11.6518 -0.115389 12.1085 0.346167L21.6538 9.88662C22.1154 10.3482 22.1154 11.0945 21.6538 11.5512L12.1085 21.0965C11.6469 21.5581 10.9006 21.5581 10.4439 21.0965L9.35387 20.0065C8.8874 19.54 8.89722 18.7789 9.37351 18.3223L15.2903 12.6854H1.17844C0.525388 12.6854 0 12.16 0 11.507V9.93572C0 9.28267 0.525388 8.75728 1.17844 8.75728H15.2903L9.37351 3.12041C8.89231 2.66377 8.88249 1.90269 9.35387 1.43622Z" fill="black"/>
</svg>
