<svg width="30" height="25" viewBox="0 0 30 25" fill="none" xmlns="http://www.w3.org/2000/svg">
<path d="M24.2701 8.67432C24.3299 9.0752 24.7242 9.375 25.193 9.375H26.1375C26.6947 9.375 27.1383 8.95654 27.075 8.479C26.8207 6.56934 25.7625 4.83984 24.1377 3.73486C23.1199 3.04297 22.449 1.94043 22.2639 0.700195C22.2047 0.299805 21.8098 0 21.3416 0H20.3971C19.8398 0 19.3957 0.418457 19.4596 0.895996C19.7139 2.80566 20.7721 4.53516 22.3969 5.64014C23.4141 6.33203 24.0855 7.43457 24.2701 8.67432ZM17.942 8.67432C18.0018 9.0752 18.3961 9.375 18.8648 9.375H19.8094C20.3666 9.375 20.8102 8.95654 20.7469 8.479C20.4926 6.56934 19.4344 4.83984 17.8096 3.73486C16.7918 3.04297 16.1209 1.94043 15.9357 0.700195C15.8766 0.299805 15.4816 0 15.0135 0H14.0689C13.5117 0 13.0676 0.418457 13.1314 0.895996C13.3857 2.80566 14.4439 4.53516 16.0687 5.64014C17.0859 6.33203 17.7574 7.43457 17.942 8.67432ZM28.125 12.5H15L8.5002 8.4375C7.8511 8.03177 7.06159 7.81246 6.2502 7.8125H3.75C1.67871 7.8125 0 9.21143 0 10.9375V21.875C0 23.6011 1.67871 25 3.75 25H26.25C28.3213 25 30 23.6011 30 21.875V14.0625C30 13.1997 29.1604 12.5 28.125 12.5ZM7.5 21.4844C7.5 21.7002 7.29023 21.875 7.03125 21.875H6.09375C5.83477 21.875 5.625 21.7002 5.625 21.4844V16.0156C5.625 15.7998 5.83477 15.625 6.09375 15.625H7.03125C7.29023 15.625 7.5 15.7998 7.5 16.0156V21.4844ZM13.125 21.4844C13.125 21.7002 12.9152 21.875 12.6562 21.875H11.7188C11.4598 21.875 11.25 21.7002 11.25 21.4844V16.0156C11.25 15.7998 11.4598 15.625 11.7188 15.625H12.6562C12.9152 15.625 13.125 15.7998 13.125 16.0156V21.4844ZM18.75 21.4844C18.75 21.7002 18.5402 21.875 18.2812 21.875H17.3438C17.0848 21.875 16.875 21.7002 16.875 21.4844V16.0156C16.875 15.7998 17.0848 15.625 17.3438 15.625H18.2812C18.5402 15.625 18.75 15.7998 18.75 16.0156V21.4844ZM24.375 21.4844C24.375 21.7002 24.1652 21.875 23.9062 21.875H22.9688C22.7098 21.875 22.5 21.7002 22.5 21.4844V16.0156C22.5 15.7998 22.7098 15.625 22.9688 15.625H23.9062C24.1652 15.625 24.375 15.7998 24.375 16.0156V21.4844ZM3.75 6.25C5.82129 6.25 7.5 4.85107 7.5 3.125C7.5 1.39893 5.82129 0 3.75 0C1.67871 0 0 1.39893 0 3.125C0 4.85107 1.67871 6.25 3.75 6.25Z" fill="#434E58"/>
</svg>
