<svg width="30" height="30" viewBox="0 0 30 30" fill="none" xmlns="http://www.w3.org/2000/svg">
<path d="M21.4975 21.4539C20.0709 22.514 18.3309 23.0305 16.5752 22.9151H12.4912V30H8.40717V10.0738H16.8331C18.5099 9.98214 20.1614 10.5257 21.476 11.6015C22.7182 12.8402 23.3568 14.5866 23.2171 16.3616C23.4411 18.2418 22.8061 20.1228 21.4975 21.4539ZM18.2733 14.2804C17.6521 13.8113 16.8931 13.5768 16.1238 13.6162H12.4912V19.4834H16.1238C16.9002 19.5257 17.665 19.2737 18.2733 18.7749C18.8233 18.1827 19.1045 17.3783 19.0471 16.5609C19.1486 15.718 18.8622 14.8747 18.2733 14.2804ZM29.902 8.32472C30.147 7.77432 29.917 7.12317 29.3861 6.86347L15.0491 0L0.626047 6.86347C0.0858825 7.1203 -0.149916 7.77941 0.0994242 8.33579C0.348764 8.89218 0.988665 9.13506 1.52883 8.87823L15.0491 2.43542L28.5693 8.85609C29.1037 9.10849 29.7358 8.87159 29.988 8.32472H29.902Z" fill="#434E58"/>
</svg>
