<svg width="30" height="15" viewBox="0 0 30 15" fill="none" xmlns="http://www.w3.org/2000/svg">
<path d="M8.88797 10.0585C9.05391 10.2113 9.60375 10.5 10.5 10.5C11.3962 10.5 11.9466 10.2113 12.112 10.0585C12.863 9.36613 13.7292 9.00004 14.618 9.00004H15.382C16.2708 9.00004 17.1375 9.36613 17.888 10.0585C18.0539 10.2113 18.6038 10.5 19.5 10.5C20.3962 10.5 20.9466 10.2113 21.112 10.0585C21.8086 9.41582 22.6064 9.06847 23.4272 9.01972L18.1378 5.24162L18.9816 4.63882C19.1522 4.51788 19.3697 4.47382 19.5731 4.51647L24.277 5.52568C25.4916 5.7849 26.6883 5.01147 26.9489 3.79695C27.2091 2.58195 26.4356 1.38571 25.2202 1.12509L20.5163 0.115875C19.0758 -0.192561 17.5622 0.121499 16.365 0.977432L12.6141 3.65726C12.1275 4.00366 11.7066 4.42788 11.3616 4.92006L8.14453 9.51566C8.40094 9.66706 8.65172 9.8405 8.88797 10.0585ZM29.25 12H28.5C27.2794 12 26.3531 11.6053 25.8708 11.161C25.4536 10.7761 24.9492 10.5 24.3816 10.5H23.6175C23.0498 10.5 22.5455 10.7761 22.1283 11.161C21.6469 11.6053 20.7206 12 19.5 12C18.2794 12 17.3531 11.6053 16.8708 11.161C16.4536 10.7761 15.9492 10.5 15.3816 10.5H14.6175C14.0498 10.5 13.5455 10.7761 13.1283 11.161C12.6469 11.6053 11.7206 12 10.5 12C9.27938 12 8.35313 11.6053 7.87078 11.161C7.45359 10.7761 6.94922 10.5 6.38156 10.5H5.6175C5.04984 10.5 4.54547 10.7761 4.12828 11.161C3.64687 11.6053 2.72062 12 1.5 12H0.75C0.335625 12 0 12.3356 0 12.75V14.25C0 14.6644 0.335625 15 0.75 15H1.5C3.31031 15 4.90875 14.4286 6 13.5075C7.09125 14.4291 8.68969 15 10.5 15C12.3103 15 13.9087 14.4286 15 13.5075C16.0912 14.4291 17.6897 15 19.5 15C21.3103 15 22.9088 14.4286 24 13.5075C25.0912 14.4291 26.6897 15 28.5 15H29.25C29.6644 15 30 14.6644 30 14.25V12.75C30 12.3356 29.6644 12 29.25 12ZM5.25 7.50005C7.32094 7.50005 9 5.82099 9 3.75007C9 1.67915 7.32094 9.40266e-05 5.25 9.40266e-05C3.17906 9.40266e-05 1.5 1.67915 1.5 3.75007C1.5 5.82099 3.17906 7.50005 5.25 7.50005Z" fill="#434E58"/>
</svg>
