<svg width="29" height="25" viewBox="0 0 29 25" fill="none" xmlns="http://www.w3.org/2000/svg">
<path d="M8.60833 17.4462C8.60833 18.6182 8.14279 19.7421 7.31411 20.5708C6.48543 21.3995 5.3615 21.865 4.18957 21.865" stroke="#434E58" stroke-width="2.46278" stroke-linecap="round" stroke-linejoin="round"/>
<path d="M20.3917 17.4462C20.3917 18.6182 20.8572 19.7421 21.6859 20.5708C22.5146 21.3995 23.6385 21.865 24.8104 21.865" stroke="#434E58" stroke-width="2.46278" stroke-linecap="round" stroke-linejoin="round"/>
<path d="M14.5 17.4462V23.3379" stroke="#434E58" stroke-width="2.46278" stroke-linecap="round" stroke-linejoin="round"/>
<path d="M24.8105 1.24376H4.18955C2.5626 1.24376 1.2437 2.56266 1.2437 4.18961V10.0813C1.2437 11.7082 2.5626 13.0271 4.18955 13.0271H24.8105C26.4374 13.0271 27.7563 11.7082 27.7563 10.0813V4.18961C27.7563 2.56266 26.4374 1.24376 24.8105 1.24376Z" stroke="#434E58" stroke-width="2.46278" stroke-linecap="round" stroke-linejoin="round"/>
<path d="M7.13537 13.0273V8.60854C7.13537 8.2179 7.29055 7.84325 7.56678 7.56703C7.84301 7.2908 8.21765 7.13562 8.60829 7.13562H20.3917C20.7823 7.13562 21.157 7.2908 21.4332 7.56703C21.7094 7.84325 21.8646 8.2179 21.8646 8.60854V13.0273" stroke="#434E58" stroke-width="2.46278" stroke-linecap="round" stroke-linejoin="round"/>
</svg>
