<svg width="30" height="20" viewBox="0 0 30 20" fill="none" xmlns="http://www.w3.org/2000/svg">
<path d="M4.875 2.85714H2.625C2.00156 2.85714 1.5 3.33482 1.5 3.92857V8.57143H0.375C0.16875 8.57143 0 8.73214 0 8.92857V11.0714C0 11.2679 0.16875 11.4286 0.375 11.4286H1.5V16.0714C1.5 16.6652 2.00156 17.1429 2.625 17.1429H4.875C5.49844 17.1429 6 16.6652 6 16.0714V3.92857C6 3.33482 5.49844 2.85714 4.875 2.85714ZM29.625 8.57143H28.5V3.92857C28.5 3.33482 27.9984 2.85714 27.375 2.85714H25.125C24.5016 2.85714 24 3.33482 24 3.92857V16.0714C24 16.6652 24.5016 17.1429 25.125 17.1429H27.375C27.9984 17.1429 28.5 16.6652 28.5 16.0714V11.4286H29.625C29.8312 11.4286 30 11.2679 30 11.0714V8.92857C30 8.73214 29.8312 8.57143 29.625 8.57143ZM21.375 0H19.125C18.5016 0 18 0.477679 18 1.07143V8.57143H12V1.07143C12 0.477679 11.4984 0 10.875 0H8.625C8.00156 0 7.5 0.477679 7.5 1.07143V18.9286C7.5 19.5223 8.00156 20 8.625 20H10.875C11.4984 20 12 19.5223 12 18.9286V11.4286H18V18.9286C18 19.5223 18.5016 20 19.125 20H21.375C21.9984 20 22.5 19.5223 22.5 18.9286V1.07143C22.5 0.477679 21.9984 0 21.375 0Z" fill="#434E58"/>
</svg>
