<svg width="25" height="30" viewBox="0 0 25 30" fill="none" xmlns="http://www.w3.org/2000/svg">
<path d="M24.3454 19.8103L21.8429 17.0955V10.4059C21.8762 7.9218 21.0752 5.50858 19.588 3.61183C18.1007 1.71509 16.0275 0.46292 13.7513 0.0865403C12.4302 -0.101148 11.0873 0.0172668 9.81198 0.433883C8.53671 0.850498 7.35845 1.55573 6.35583 2.50254C5.35322 3.44934 4.54929 4.61593 3.9977 5.92448C3.44612 7.23303 3.15954 8.65344 3.15711 10.0909V17.0955L0.654552 19.8103C0.340211 20.1551 0.127046 20.5922 0.0417038 21.067C-0.0436381 21.5417 0.00263049 22.0331 0.174725 22.4796C0.34682 22.9262 0.637105 23.3081 1.00929 23.5776C1.38148 23.8472 1.81905 23.9924 2.26731 23.9951H6.93876V24.5051C7.0037 26.0278 7.6255 27.4606 8.66792 28.4896C9.71034 29.5186 11.0884 30.0599 12.5 29.9947C13.9116 30.0599 15.2897 29.5186 16.3321 28.4896C17.3745 27.4606 17.9963 26.0278 18.0612 24.5051V23.9951H22.7327C23.1809 23.9924 23.6185 23.8472 23.9907 23.5776C24.3629 23.3081 24.6532 22.9262 24.8253 22.4796C24.9974 22.0331 25.0436 21.5417 24.9583 21.067C24.873 20.5922 24.6598 20.1551 24.3454 19.8103ZM15.2806 24.5051C15.2035 25.2265 14.8714 25.8881 14.3534 26.3519C13.8354 26.8157 13.1715 27.0461 12.5 26.9949C11.8285 27.0461 11.1646 26.8157 10.6466 26.3519C10.1286 25.8881 9.79648 25.2265 9.71938 24.5051V23.9951H15.2806V24.5051ZM3.47688 20.9953L5.11745 19.2254C5.37767 18.9463 5.58412 18.6144 5.72491 18.2489C5.86569 17.8833 5.93802 17.4914 5.93773 17.0955V10.0909C5.93849 9.0791 6.13986 8.07914 6.52833 7.15818C6.9168 6.23721 7.48337 5.41655 8.19003 4.75126C8.88716 4.06982 9.71322 3.55996 10.611 3.25695C11.5089 2.95394 12.457 2.86503 13.3898 2.99636C14.9977 3.27801 16.4571 4.17681 17.4994 5.52728C18.5417 6.87775 19.0967 8.58898 19.0623 10.3459V17.0955C19.0601 17.4903 19.1303 17.8817 19.2687 18.2472C19.407 18.6127 19.6109 18.9451 19.8686 19.2254L21.5231 20.9953H3.47688Z" fill="#434E58"/>
</svg>
